<svg version="1.1" viewBox="0.0 0.0 1159.9133858267717 444.0" fill="none" stroke="none" stroke-linecap="square" stroke-miterlimit="10" xmlns:xlink="http://www.w3.org/1999/xlink" xmlns="http://www.w3.org/2000/svg"><clipPath id="p.0"><path d="m0 0l1159.9133 0l0 444.0l-1159.9133 0l0 -444.0z" clip-rule="nonzero"/></clipPath><g clip-path="url(#p.0)"><path fill="#000000" fill-opacity="0.0" d="m0 0l1159.9133 0l0 444.0l-1159.9133 0z" fill-rule="evenodd"/><path fill="#ffffff" d="m22.420612 348.33835l0 0c0 -49.545044 40.164196 -89.70923 89.70924 -89.70923l936.53296 0c23.792358 0 46.61023 9.451477 63.43396 26.275238c16.82373 16.82373 26.275269 39.641632 26.275269 63.43399l0 0l0 0c0 49.545044 -40.164185 89.70926 -89.70923 89.70926l-936.53296 0c-49.545044 0 -89.70924 -40.164215 -89.70924 -89.70926z" fill-rule="evenodd"/><path stroke="#ffffff" stroke-width="1.0" stroke-linejoin="round" stroke-linecap="butt" d="m22.420612 348.33835l0 0c0 -49.545044 40.164196 -89.70923 89.70924 -89.70923l936.53296 0c23.792358 0 46.61023 9.451477 63.43396 26.275238c16.82373 16.82373 26.275269 39.641632 26.275269 63.43399l0 0l0 0c0 49.545044 -40.164185 89.70926 -89.70923 89.70926l-936.53296 0c-49.545044 0 -89.70924 -40.164215 -89.70924 -89.70926z" fill-rule="evenodd"/><path fill="#ffffff" d="m175.31459 194.87671l0 0c0 -105.17308 93.519516 -190.43271 208.8817 -190.43271l0 0c115.36218 0 208.88171 85.25963 208.88171 190.43271l0 0c0 105.173096 -93.51953 190.43271 -208.88171 190.43271l0 0c-115.36218 0 -208.8817 -85.25961 -208.8817 -190.43271z" fill-rule="evenodd"/><path stroke="#ffffff" stroke-width="1.0" stroke-linejoin="round" stroke-linecap="butt" d="m175.31459 194.87671l0 0c0 -105.17308 93.519516 -190.43271 208.8817 -190.43271l0 0c115.36218 0 208.88171 85.25963 208.88171 190.43271l0 0c0 105.173096 -93.51953 190.43271 -208.88171 190.43271l0 0c-115.36218 0 -208.8817 -85.25961 -208.8817 -190.43271z" fill-rule="evenodd"/><path fill="#ffffff" d="m561.2759 258.73227l0 0c0 -99.04773 91.673584 -179.34178 204.75873 -179.34178l0 0c113.085144 0 204.75873 80.29405 204.75873 179.34178l0 0c0 99.04773 -91.673584 179.34177 -204.75873 179.34177l0 0c-113.085144 0 -204.75873 -80.29404 -204.75873 -179.34177z" fill-rule="evenodd"/><path stroke="#ffffff" stroke-width="1.0" stroke-linejoin="round" stroke-linecap="butt" d="m561.2759 258.73227l0 0c0 -99.04773 91.673584 -179.34178 204.75873 -179.34178l0 0c113.085144 0 204.75873 80.29405 204.75873 179.34178l0 0c0 99.04773 -91.673584 179.34177 -204.75873 179.34177l0 0c-113.085144 0 -204.75873 -80.29404 -204.75873 -179.34177z" fill-rule="evenodd"/><path fill="#ffffff" d="m927.72675 323.33328l0 0c0 -63.37155 50.83966 -114.74437 113.55353 -114.74437l0 0c30.116333 0 58.999146 12.089096 80.294556 33.60785c21.29541 21.518753 33.259033 50.704422 33.259033 81.13652l0 0c0 63.371582 -50.8396 114.744385 -113.55359 114.744385l0 0c-62.713867 0 -113.55353 -51.372803 -113.55353 -114.744385z" fill-rule="evenodd"/><path stroke="#ffffff" stroke-width="1.0" stroke-linejoin="round" stroke-linecap="butt" d="m927.72675 323.33328l0 0c0 -63.37155 50.83966 -114.74437 113.55353 -114.74437l0 0c30.116333 0 58.999146 12.089096 80.294556 33.60785c21.29541 21.518753 33.259033 50.704422 33.259033 81.13652l0 0c0 63.371582 -50.8396 114.744385 -113.55359 114.744385l0 0c-62.713867 0 -113.55353 -51.372803 -113.55353 -114.744385z" fill-rule="evenodd"/><path fill="#ffffff" d="m3.6953304 321.2857l0 0c0 -64.49835 53.23096 -116.78461 118.894684 -116.78461l0 0c31.532822 0 61.774155 12.304062 84.07123 34.205414c22.297073 21.901367 34.823456 51.605988 34.823456 82.57919l0 0c0 64.49838 -53.230972 116.78464 -118.894684 116.78464l0 0c-65.66372 0 -118.894684 -52.286255 -118.894684 -116.78464z" fill-rule="evenodd"/><path stroke="#ffffff" stroke-width="1.0" stroke-linejoin="round" stroke-linecap="butt" d="m3.6953304 321.2857l0 0c0 -64.49835 53.23096 -116.78461 118.894684 -116.78461l0 0c31.532822 0 61.774155 12.304062 84.07123 34.205414c22.297073 21.901367 34.823456 51.605988 34.823456 82.57919l0 0c0 64.49838 -53.230972 116.78464 -118.894684 116.78464l0 0c-65.66372 0 -118.894684 -52.286255 -118.894684 -116.78464z" fill-rule="evenodd"/></g></svg>